<mxfile host="app.diagrams.net" modified="2021-07-20T13:14:56.687Z" agent="5.0 (Macintosh; Intel Mac OS X 10_15_7) AppleWebKit/537.36 (KHTML, like Gecko) Chrome/91.0.4472.114 Safari/537.36" etag="bHc-O3vl8D7qpmWSlS56" version="14.9.0" type="github">
  <diagram id="Ulkw2aPVCOvm72S-uX6G" name="Page-1">
    <mxGraphModel dx="2066" dy="1154" grid="1" gridSize="10" guides="1" tooltips="1" connect="1" arrows="1" fold="1" page="1" pageScale="1" pageWidth="827" pageHeight="1169" math="0" shadow="0">
      <root>
        <mxCell id="0" />
        <mxCell id="1" parent="0" />
        <mxCell id="MQLMUxoKIwjtaKtvZoSH-3" value="" style="outlineConnect=0;fontColor=#232F3E;gradientColor=none;fillColor=#232F3E;strokeColor=none;dashed=0;verticalLabelPosition=bottom;verticalAlign=top;align=center;html=1;fontSize=12;fontStyle=0;aspect=fixed;pointerEvents=1;shape=mxgraph.aws4.user;" vertex="1" parent="1">
          <mxGeometry x="50" y="100" width="50" height="50" as="geometry" />
        </mxCell>
        <mxCell id="MQLMUxoKIwjtaKtvZoSH-4" value="Mobile client" style="outlineConnect=0;fontColor=#232F3E;gradientColor=none;strokeColor=#232F3E;fillColor=#ffffff;dashed=0;verticalLabelPosition=bottom;verticalAlign=top;align=center;html=1;fontSize=12;fontStyle=0;aspect=fixed;shape=mxgraph.aws4.resourceIcon;resIcon=mxgraph.aws4.mobile_client;" vertex="1" parent="1">
          <mxGeometry x="110" y="95" width="60" height="60" as="geometry" />
        </mxCell>
        <mxCell id="MQLMUxoKIwjtaKtvZoSH-5" value="" style="endArrow=classic;html=1;" edge="1" parent="1">
          <mxGeometry width="50" height="50" relative="1" as="geometry">
            <mxPoint x="200" y="110" as="sourcePoint" />
            <mxPoint x="290" y="110" as="targetPoint" />
          </mxGeometry>
        </mxCell>
        <mxCell id="MQLMUxoKIwjtaKtvZoSH-6" value="" style="endArrow=none;html=1;startArrow=classic;startFill=1;endFill=0;" edge="1" parent="1">
          <mxGeometry width="50" height="50" relative="1" as="geometry">
            <mxPoint x="200" y="124.5" as="sourcePoint" />
            <mxPoint x="290" y="124.5" as="targetPoint" />
          </mxGeometry>
        </mxCell>
        <mxCell id="MQLMUxoKIwjtaKtvZoSH-7" value="" style="ellipse;shape=cloud;whiteSpace=wrap;html=1;" vertex="1" parent="1">
          <mxGeometry x="294" y="75" width="120" height="80" as="geometry" />
        </mxCell>
        <mxCell id="MQLMUxoKIwjtaKtvZoSH-8" value="&lt;div style=&quot;text-align: justify&quot;&gt;&lt;span style=&quot;line-height: 70%&quot;&gt;Web Service&lt;/span&gt;&lt;/div&gt;&lt;div style=&quot;text-align: justify&quot;&gt;&lt;span style=&quot;line-height: 70%&quot;&gt;&lt;br&gt;&lt;/span&gt;&lt;/div&gt;&lt;div style=&quot;text-align: justify&quot;&gt;&lt;span style=&quot;line-height: 70%&quot;&gt;&lt;br&gt;&lt;/span&gt;&lt;/div&gt;&lt;div style=&quot;text-align: justify&quot;&gt;&lt;span style=&quot;line-height: 70%&quot;&gt;&lt;br&gt;&lt;/span&gt;&lt;/div&gt;" style="rounded=1;whiteSpace=wrap;html=1;align=center;" vertex="1" parent="1">
          <mxGeometry x="560" y="70" width="120" height="85" as="geometry" />
        </mxCell>
        <mxCell id="MQLMUxoKIwjtaKtvZoSH-9" value="Model" style="rounded=1;whiteSpace=wrap;html=1;" vertex="1" parent="1">
          <mxGeometry x="570" y="110" width="100" height="30" as="geometry" />
        </mxCell>
        <mxCell id="MQLMUxoKIwjtaKtvZoSH-10" value="" style="endArrow=classic;html=1;" edge="1" parent="1">
          <mxGeometry width="50" height="50" relative="1" as="geometry">
            <mxPoint x="430" y="112" as="sourcePoint" />
            <mxPoint x="550" y="112" as="targetPoint" />
          </mxGeometry>
        </mxCell>
        <mxCell id="MQLMUxoKIwjtaKtvZoSH-11" value="" style="endArrow=none;html=1;startArrow=classic;startFill=1;endFill=0;" edge="1" parent="1">
          <mxGeometry width="50" height="50" relative="1" as="geometry">
            <mxPoint x="430" y="124.5" as="sourcePoint" />
            <mxPoint x="550" y="124.5" as="targetPoint" />
          </mxGeometry>
        </mxCell>
        <mxCell id="MQLMUxoKIwjtaKtvZoSH-12" value="inputs&lt;br&gt;e.g REST API" style="text;html=1;strokeColor=none;fillColor=none;align=center;verticalAlign=middle;whiteSpace=wrap;rounded=0;" vertex="1" parent="1">
          <mxGeometry x="440" y="80" width="80" height="20" as="geometry" />
        </mxCell>
        <mxCell id="MQLMUxoKIwjtaKtvZoSH-15" value="output &lt;br&gt;e.g REST API" style="text;html=1;strokeColor=none;fillColor=none;align=center;verticalAlign=middle;whiteSpace=wrap;rounded=0;" vertex="1" parent="1">
          <mxGeometry x="440" y="135" width="80" height="20" as="geometry" />
        </mxCell>
        <mxCell id="MQLMUxoKIwjtaKtvZoSH-16" value="Web app" style="text;html=1;strokeColor=none;fillColor=none;align=center;verticalAlign=middle;whiteSpace=wrap;rounded=0;" vertex="1" parent="1">
          <mxGeometry x="334" y="105" width="40" height="20" as="geometry" />
        </mxCell>
        <mxCell id="MQLMUxoKIwjtaKtvZoSH-17" value="&lt;h1&gt;&lt;span&gt;Example of ML model out in production&lt;/span&gt;&lt;/h1&gt;&lt;h1 style=&quot;font-size: 16px&quot;&gt;&lt;ol&gt;&lt;li&gt;&lt;span style=&quot;font-weight: normal&quot;&gt;Data produced by user (e.g. by input field or button in website)&amp;nbsp;&lt;/span&gt;&lt;/li&gt;&lt;li&gt;&lt;span style=&quot;font-weight: normal&quot;&gt;Data is sent to server by query (e.g HTTPs)&lt;/span&gt;&lt;/li&gt;&lt;li&gt;&lt;span style=&quot;font-weight: normal&quot;&gt;Data is forwarded by server to web app&amp;nbsp;&lt;/span&gt;&lt;/li&gt;&lt;li&gt;&lt;span style=&quot;font-weight: normal&quot;&gt;Web app calls the web service and sends data via REST API&lt;/span&gt;&lt;/li&gt;&lt;/ol&gt;&lt;/h1&gt;&lt;div&gt;&lt;span&gt;&lt;br&gt;&lt;/span&gt;&lt;/div&gt;&lt;div&gt;&lt;span&gt;&lt;br&gt;&lt;/span&gt;&lt;/div&gt;&lt;div&gt;&lt;span&gt;Good idea to wrap model in web service&amp;nbsp;so application and model is not dependent on each-other&amp;nbsp;for languages and scales better (e.g load balance)&amp;nbsp;&lt;/span&gt;&lt;/div&gt;&lt;div&gt;&lt;span&gt;&lt;br&gt;&lt;/span&gt;&lt;/div&gt;&lt;div&gt;&lt;span&gt;Another strategy is to deploy model on the cloud (e.g. Googles Cloud AI Platform)&lt;/span&gt;&lt;/div&gt;" style="text;html=1;strokeColor=none;fillColor=none;spacing=5;spacingTop=-20;whiteSpace=wrap;overflow=hidden;rounded=0;" vertex="1" parent="1">
          <mxGeometry x="50" y="220" width="490" height="250" as="geometry" />
        </mxCell>
        <mxCell id="MQLMUxoKIwjtaKtvZoSH-19" value="" style="html=1;verticalLabelPosition=bottom;align=center;labelBackgroundColor=#ffffff;verticalAlign=top;strokeWidth=2;strokeColor=#0080F0;shadow=0;dashed=0;shape=mxgraph.ios7.icons.lightbulb;" vertex="1" parent="1">
          <mxGeometry x="25.200000000000045" y="405" width="22.8" height="29.7" as="geometry" />
        </mxCell>
        <mxCell id="MQLMUxoKIwjtaKtvZoSH-20" value="Useful blog post on ML production by ubuntu: https://ubuntu.com/blog/guide-to-ml-model-serving" style="text;html=1;align=center;verticalAlign=middle;resizable=0;points=[];autosize=1;strokeColor=none;" vertex="1" parent="1">
          <mxGeometry x="48" y="510" width="530" height="20" as="geometry" />
        </mxCell>
      </root>
    </mxGraphModel>
  </diagram>
</mxfile>
